# xmcd
#
# Track frame offsets: 
#        150
#        18645
#        38680
#        60718
#        78890
#        103288
#        122254
#        139776
#        160428
#        177433
#        194243
#        215668
#
# Disc length: 3182 seconds
#
# Revision: 2
# Processed by: cddbd v1.5.2PL0 Copyright (c) Steve Scherf et al.
# Submitted via: ExactAudioCopy v0.95b2
#
DISCID=ae0c6c0c
DTITLE=Striho - Resto - McMurray - Secrets and Space
DYEAR=2000
DGENRE=Techno-Industrial
TTITLE0=Bravo
TTITLE1=Necklace
TTITLE2=Vision - Vision
TTITLE3=Breathing Space
TTITLE4=Reach Out I'll Be There
TTITLE5=Time and Spaces 
TTITLE6=Memories
TTITLE7=Surrender
TTITLE8=Beats and Meditations
TTITLE9=Destiny Plans
TTITLE10=Equinox
TTITLE11=I'll Be Around
EXTD=
EXTT0=
EXTT1=
EXTT2=
EXTT3=
EXTT4=
EXTT5=
EXTT6=
EXTT7=
EXTT8=
EXTT9=
EXTT10=
EXTT11=
PLAYORDER=
